<svg width="21" height="15" viewBox="0 0 21 15" fill="none" xmlns="http://www.w3.org/2000/svg">
<path d="M13.125 7.875C13.125 8.7038 12.7958 9.49866 12.2097 10.0847C11.6237 10.6708 10.8288 11 10 11C9.1712 11 8.37634 10.6708 7.79029 10.0847C7.20424 9.49866 6.875 8.7038 6.875 7.875C6.875 7.0462 7.20424 6.25134 7.79029 5.66529C8.37634 5.07924 9.1712 4.75 10 4.75C10.8288 4.75 11.6237 5.07924 12.2097 5.66529C12.7958 6.25134 13.125 7.0462 13.125 7.875V7.875Z" fill="#4B4A4A"/>
<path d="M0 7.875C0 7.875 3.75 1 10 1C16.25 1 20 7.875 20 7.875C20 7.875 16.25 14.75 10 14.75C3.75 14.75 0 7.875 0 7.875ZM10 12.25C11.1603 12.25 12.2731 11.7891 13.0936 10.9686C13.9141 10.1481 14.375 9.03532 14.375 7.875C14.375 6.71468 13.9141 5.60188 13.0936 4.78141C12.2731 3.96094 11.1603 3.5 10 3.5C8.83968 3.5 7.72688 3.96094 6.90641 4.78141C6.08594 5.60188 5.625 6.71468 5.625 7.875C5.625 9.03532 6.08594 10.1481 6.90641 10.9686C7.72688 11.7891 8.83968 12.25 10 12.25V12.25Z" fill="#4B4A4A"/>
<line x1="0.286731" y1="0.590384" x2="20.2867" y2="14.5904" stroke="black"/>
</svg>
