<svg width="16" height="16" viewBox="0 0 16 16" fill="none" xmlns="http://www.w3.org/2000/svg">
<path d="M1.3335 8C1.3335 9.5913 1.96564 11.1174 3.09086 12.2426C4.21607 13.3679 5.7422 14 7.3335 14C8.92683 14 10.4535 13.3733 11.6002 12.2667L10.6002 11.2667C10.1803 11.711 9.67379 12.0644 9.11193 12.3052C8.55006 12.546 7.94478 12.669 7.3335 12.6667C3.1735 12.6667 1.0935 7.64 4.0335 4.7C6.9735 1.76 12.0002 3.84667 12.0002 8H10.0002L12.6668 10.6667H12.7335L15.3335 8H13.3335C13.3335 6.4087 12.7014 4.88258 11.5761 3.75736C10.4509 2.63214 8.9248 2 7.3335 2C5.7422 2 4.21607 2.63214 3.09086 3.75736C1.96564 4.88258 1.3335 6.4087 1.3335 8Z" fill="#01C8FF"/>
</svg>
