<svg width="20" height="14" viewBox="0 0 20 14" fill="none" xmlns="http://www.w3.org/2000/svg">
<path d="M13.125 7C13.125 7.8288 12.7958 8.62366 12.2097 9.20971C11.6237 9.79576 10.8288 10.125 10 10.125C9.1712 10.125 8.37634 9.79576 7.79029 9.20971C7.20424 8.62366 6.875 7.8288 6.875 7C6.875 6.1712 7.20424 5.37634 7.79029 4.79029C8.37634 4.20424 9.1712 3.875 10 3.875C10.8288 3.875 11.6237 4.20424 12.2097 4.79029C12.7958 5.37634 13.125 6.1712 13.125 7Z" fill="#4B4A4A"/>
<path d="M0 7C0 7 3.75 0.125 10 0.125C16.25 0.125 20 7 20 7C20 7 16.25 13.875 10 13.875C3.75 13.875 0 7 0 7ZM10 11.375C11.1603 11.375 12.2731 10.9141 13.0936 10.0936C13.9141 9.27312 14.375 8.16032 14.375 7C14.375 5.83968 13.9141 4.72688 13.0936 3.90641C12.2731 3.08594 11.1603 2.625 10 2.625C8.83968 2.625 7.72688 3.08594 6.90641 3.90641C6.08594 4.72688 5.625 5.83968 5.625 7C5.625 8.16032 6.08594 9.27312 6.90641 10.0936C7.72688 10.9141 8.83968 11.375 10 11.375Z" fill="#4B4A4A"/>
</svg>
